<?xml version="1.0" standalone="no"?>
<!DOCTYPE svg PUBLIC "-//W3C//DTD SVG 20010904//EN"
 "http://www.w3.org/TR/2001/REC-SVG-20010904/DTD/svg10.dtd">
<svg version="1.0" xmlns="http://www.w3.org/2000/svg"
 width="1024.000000pt" height="1024.000000pt" viewBox="0 0 1024.000000 1024.000000"
 preserveAspectRatio="xMidYMid meet">

<g transform="translate(0.000000,1024.000000) scale(0.100000,-0.100000)"
fill="#000000" stroke="none">
<path d="M0 5120 l0 -5120 5120 0 5120 0 0 5120 0 5120 -5120 0 -5120 0 0
-5120z m5410 3315 l286 -286 432 1 433 0 -2 -422 -2 -423 288 -293 c159 -160
286 -294 284 -296 -2 -2 -131 -134 -287 -293 l-283 -289 1 -422 0 -422 -432 0
-433 1 -285 -292 -286 -291 -289 291 -289 291 -433 0 -434 0 1 427 1 427 -288
288 -288 288 289 289 290 290 -3 425 -3 426 434 0 434 0 284 285 c157 157 287
285 290 285 3 0 133 -128 290 -285z m-2830 -4295 c-28 -44 -71 -113 -97 -153
-26 -39 -72 -112 -103 -162 -31 -49 -129 -205 -217 -345 -88 -140 -208 -331
-267 -424 -58 -92 -106 -172 -106 -177 0 -5 101 -9 224 -9 382 0 479 35 596
215 41 62 60 79 60 52 0 -14 -58 -286 -65 -304 -3 -10 -123 -13 -554 -13
l-549 0 190 303 c105 166 296 469 425 672 l233 370 -177 3 c-276 4 -413 -21
-492 -94 -21 -18 -59 -64 -87 -103 -59 -84 -80 -92 -71 -26 4 25 12 97 18 160
l12 115 539 0 538 0 -50 -80z m997 15 c13 -33 106 -260 205 -505 235 -580 276
-677 295 -709 30 -47 66 -80 100 -92 18 -6 33 -15 33 -20 0 -5 -100 -9 -240
-9 -153 0 -240 4 -240 10 0 6 7 10 16 10 8 0 29 14 46 30 27 28 30 35 24 72
-4 22 -32 110 -64 194 l-57 154 -270 0 -271 0 -53 -144 c-75 -202 -70 -256 25
-296 24 -11 44 -22 44 -25 0 -3 -86 -5 -191 -5 -196 0 -227 7 -146 35 77 26
69 11 336 678 221 554 226 571 196 644 -8 19 -15 37 -15 40 0 2 45 2 101 1
l101 -3 25 -60z m1273 55 c0 -5 -9 -10 -21 -10 -30 0 -85 -59 -98 -105 -6 -24
-11 -136 -11 -277 l0 -238 371 0 370 0 -3 263 c-3 253 -4 263 -26 299 -14 23
-36 42 -58 50 -18 6 -34 16 -34 20 0 4 108 8 241 8 157 0 238 -3 234 -10 -3
-5 -11 -10 -17 -10 -6 0 -26 -11 -44 -25 -62 -48 -64 -64 -64 -664 0 -352 4
-549 11 -575 13 -47 49 -84 89 -92 79 -16 9 -24 -210 -24 -153 0 -240 4 -240
10 0 6 8 10 19 10 31 0 68 38 85 87 13 38 16 96 16 315 l0 268 -370 0 -370 0
0 -261 c0 -158 4 -278 11 -304 14 -54 48 -93 89 -101 79 -16 10 -24 -210 -24
-153 0 -240 4 -240 10 0 6 8 10 19 10 34 0 70 39 86 92 13 44 15 137 15 592 0
359 -4 554 -11 580 -13 46 -59 96 -88 96 -12 0 -21 5 -21 10 0 6 87 10 240 10
153 0 240 -4 240 -10z m1984 -18 c94 -26 146 -55 203 -114 64 -66 87 -126 87
-224 -2 -167 -95 -290 -271 -356 l-62 -24 111 -179 c176 -287 226 -361 273
-404 28 -25 54 -41 70 -41 16 0 25 -6 25 -16 0 -15 -13 -16 -112 -12 -136 5
-189 27 -262 109 -44 49 -178 264 -275 442 l-43 77 -48 0 c-26 0 -68 -3 -94
-6 l-48 -7 4 -246 c3 -209 6 -251 20 -278 21 -38 64 -73 89 -73 11 0 19 -4 19
-10 0 -6 -87 -10 -242 -10 -133 0 -239 3 -235 6 3 3 20 13 38 22 55 28 71 60
79 159 5 48 7 313 6 588 -2 463 -3 503 -20 538 -18 37 -59 67 -91 67 -8 0 -15
5 -15 11 0 8 104 10 358 7 328 -4 363 -6 436 -26z m1298 -47 c16 -38 126 -308
244 -600 119 -291 230 -556 246 -588 34 -62 78 -107 108 -107 10 0 20 -7 24
-15 5 -13 -25 -15 -229 -15 -150 0 -235 4 -235 10 0 6 7 10 15 10 29 0 65 47
65 84 0 33 -32 132 -96 294 l-29 72 -270 0 -270 0 -53 -148 c-72 -202 -69
-247 19 -292 21 -11 39 -23 39 -25 0 -3 -79 -5 -175 -5 -145 0 -175 2 -175 14
0 8 15 19 34 26 41 13 66 40 99 105 13 28 117 282 231 566 220 552 223 563
192 652 l-14 38 101 -3 100 -3 29 -70z m-6472 -1985 l0 -149 77 -3 c71 -3 77
-5 78 -25 2 -22 -1 -23 -102 -23 l-103 0 0 175 0 175 25 0 25 0 0 -150z m322
14 c3 -154 8 -164 83 -164 70 0 79 19 83 171 4 129 4 129 28 129 l24 0 0 -130
c0 -147 -9 -179 -62 -206 -46 -24 -140 -15 -173 16 -35 33 -45 78 -45 208 l0
112 29 0 29 0 4 -136z m437 71 c23 -36 43 -65 45 -65 2 0 23 29 46 65 36 55
47 65 71 65 l29 0 -26 -42 c-15 -24 -40 -62 -55 -85 -16 -23 -29 -44 -29 -48
0 -3 22 -38 48 -78 70 -104 68 -97 30 -97 -30 0 -37 6 -73 65 -22 35 -42 65
-45 65 -3 0 -23 -29 -45 -65 -34 -55 -44 -65 -67 -65 -16 0 -28 2 -28 5 0 3
24 42 54 87 l54 81 -54 84 c-30 46 -54 86 -54 88 0 3 13 5 29 5 25 0 35 -9 70
-65z m358 33 c0 -18 0 -77 1 -130 2 -83 5 -101 22 -118 26 -26 89 -27 121 -1
23 18 24 27 28 150 3 131 3 131 27 131 l24 0 0 -126 c0 -144 -11 -181 -64
-209 -24 -13 -47 -17 -89 -13 -103 8 -127 52 -127 228 l0 120 29 0 c27 0 29
-3 28 -32z m537 18 c62 -26 83 -85 51 -147 -9 -16 -27 -34 -41 -39 l-24 -10
50 -67 49 -68 -30 -3 c-22 -2 -35 2 -45 16 -45 64 -97 122 -109 122 -12 0 -15
-15 -15 -70 0 -68 -1 -70 -25 -70 l-25 0 0 175 0 175 65 0 c36 0 81 -6 99 -14z
m269 -63 c23 -40 43 -73 46 -73 4 0 24 34 46 75 35 66 43 75 67 75 16 0 28 -2
28 -4 0 -2 -25 -48 -55 -101 -53 -94 -55 -100 -55 -171 l0 -74 -27 0 c-28 0
-28 1 -31 73 -3 67 -7 78 -59 167 -31 52 -58 99 -60 103 -3 5 10 7 27 5 29 -3
37 -11 73 -75z m704 -98 l71 -175 -30 0 c-25 0 -31 6 -48 45 l-19 45 -71 0
-71 0 -19 -45 c-16 -36 -24 -45 -45 -45 -14 0 -25 2 -25 5 0 2 21 53 46 112
26 59 52 124 59 143 31 85 34 90 58 90 20 0 31 -19 94 -175z m363 159 c48 -19
60 -38 60 -95 0 -35 -6 -47 -36 -75 l-36 -34 30 -38 c16 -20 37 -49 47 -64
l17 -28 -30 0 c-26 0 -38 10 -78 63 -80 103 -94 105 -94 7 0 -68 -1 -70 -25
-70 l-25 0 0 175 0 175 65 0 c36 0 82 -7 105 -16z m390 -20 c7 -20 38 -99 70
-175 l58 -139 -29 0 c-26 0 -32 6 -49 45 l-19 45 -74 0 -73 0 -15 -42 c-13
-37 -20 -43 -47 -46 l-31 -3 65 153 c36 84 69 163 74 176 6 14 18 22 34 22 19
0 27 -8 36 -36z m437 10 c34 -26 43 -82 18 -120 -16 -24 -15 -26 9 -45 20 -16
26 -30 26 -58 0 -67 -57 -101 -171 -101 l-69 0 0 176 0 176 79 -3 c61 -3 86
-9 108 -25z m235 -149 l3 -175 -27 0 -28 0 0 175 0 175 25 0 24 0 3 -175z
m389 154 c36 -18 39 -22 28 -37 -8 -9 -14 -18 -15 -20 -1 -2 -16 4 -33 12 -96
50 -189 -17 -178 -128 6 -69 47 -106 115 -106 28 0 57 7 71 16 20 15 24 15 38
1 48 -48 -111 -90 -193 -51 -66 32 -102 106 -90 188 17 113 152 179 257 125z
m590 1 c34 -18 38 -23 29 -40 -13 -23 -17 -24 -50 -5 -43 25 -105 19 -141 -13
-27 -24 -33 -37 -36 -83 -4 -61 8 -92 48 -122 33 -24 100 -25 136 -2 23 15 27
15 40 2 51 -51 -113 -90 -198 -47 -47 25 -76 68 -85 128 -21 143 127 248 257
182z m219 -104 c0 -110 2 -126 21 -150 16 -21 29 -26 64 -26 35 0 48 5 64 26
19 24 21 40 21 150 l0 124 30 0 30 0 -1 -112 c-1 -139 -13 -185 -58 -215 -68
-46 -186 -21 -212 45 -7 15 -14 84 -17 155 l-5 127 32 0 31 0 0 -124z m425
-51 l0 -175 -27 0 -28 0 0 175 0 175 28 0 27 0 0 -175z m320 161 c39 -16 40
-19 25 -47 -10 -18 -12 -18 -35 -3 -30 20 -94 15 -109 -8 -17 -27 3 -49 64
-70 75 -25 100 -51 100 -102 -1 -106 -120 -141 -229 -68 -10 7 -11 14 -2 31
l12 21 27 -20 c45 -33 84 -36 117 -7 42 36 26 64 -55 96 -76 31 -97 58 -86
115 12 66 92 95 171 62z m225 -161 l0 -175 -25 0 -25 0 0 175 0 175 25 0 25 0
0 -175z m202 166 c2 -6 44 -62 93 -126 l90 -117 3 126 c2 118 4 126 22 126 19
0 20 -8 20 -175 0 -162 -1 -175 -18 -175 -16 0 -128 134 -185 222 -11 15 -22
28 -25 28 -4 0 -6 -56 -4 -125 l3 -125 -25 0 -26 0 0 175 0 175 24 0 c13 0 26
-4 28 -9z m588 -16 c0 -25 -1 -25 -80 -25 l-80 0 0 -50 0 -50 75 0 c71 0 75
-1 75 -22 0 -22 -4 -23 -72 -23 l-73 0 -3 -52 -3 -53 80 0 c80 0 81 0 81 -25
l0 -25 -105 0 -105 0 0 175 0 175 105 0 105 0 0 -25z"/>
<path d="M4908 8312 l-217 -217 77 -35 77 -36 139 143 138 143 77 -77 c42 -43
104 -109 137 -146 l60 -68 77 37 77 36 -109 117 c-60 64 -156 162 -213 218
l-103 103 -217 -218z"/>
<path d="M5049 8043 c-195 -199 -263 -341 -264 -548 0 -174 42 -259 173 -346
42 -29 96 -67 120 -86 l43 -35 32 26 c18 15 66 51 108 81 154 111 189 169 197
327 10 214 -56 366 -241 556 -50 50 -93 92 -97 92 -3 0 -35 -30 -71 -67z m125
-234 c72 -81 125 -206 126 -300 0 -54 -35 -158 -69 -205 -17 -22 -49 -53 -71
-69 -45 -31 -42 -32 -118 39 -110 103 -127 247 -48 411 31 66 111 175 127 175
4 0 28 -23 53 -51z"/>
<path d="M5094 7525 c-19 -42 -27 -75 -27 -115 0 -40 8 -73 27 -115 l28 -60
26 50 c22 41 27 63 27 125 0 62 -5 84 -27 125 l-26 50 -28 -60z"/>
<path d="M3824 8011 c-8 -8 -4 -601 4 -601 4 0 16 6 27 14 11 7 45 22 75 33
l55 21 -4 186 -3 186 196 0 c160 0 196 3 196 14 0 7 15 43 33 80 l34 66 -31 0
c-271 4 -579 4 -582 1z"/>
<path d="M6113 8013 c-167 -2 -303 -5 -303 -7 0 -2 13 -28 28 -58 16 -29 31
-63 34 -76 6 -22 8 -22 197 -22 l191 0 0 -190 c0 -174 1 -190 18 -190 9 0 45
-13 80 -30 l62 -29 0 304 c0 168 -1 304 -2 303 -2 -2 -139 -4 -305 -5z"/>
<path d="M4536 7910 c-20 -40 -36 -81 -36 -91 0 -14 16 -26 53 -43 29 -12 72
-35 95 -50 23 -14 42 -21 42 -15 0 7 20 54 45 106 l44 94 -65 30 c-37 16 -83
32 -104 35 l-38 6 -36 -72z"/>
<path d="M5555 7949 c-38 -16 -73 -33 -78 -38 -4 -4 1 -23 12 -42 17 -29 39
-80 64 -152 7 -18 9 -18 40 3 17 12 60 35 95 51 34 16 62 31 62 34 0 17 -36
105 -56 137 -29 46 -44 47 -139 7z"/>
<path d="M4106 7648 c11 -151 31 -238 74 -324 53 -109 89 -140 172 -149 173
-19 275 -59 337 -133 19 -23 38 -41 42 -40 4 2 30 25 59 52 l52 49 -46 41
c-60 55 -90 125 -117 269 -24 130 -40 163 -106 213 -80 61 -240 104 -387 104
l-85 0 5 -82z m283 -117 c116 -36 160 -89 171 -205 l6 -68 -51 4 c-120 10
-199 96 -239 261 -6 25 -4 27 23 27 16 0 57 -9 90 -19z"/>
<path d="M5895 7715 c-152 -34 -260 -97 -300 -176 -8 -14 -21 -71 -30 -125
-19 -118 -54 -200 -116 -268 l-45 -49 53 -50 54 -51 52 52 c78 77 170 112 361
137 59 8 86 33 134 123 44 82 72 196 79 320 l6 102 -94 -1 c-52 0 -121 -7
-154 -14z m72 -172 c-37 -135 -51 -167 -88 -208 -43 -46 -72 -60 -154 -69
l-50 -6 5 67 c6 84 31 128 90 165 34 21 142 58 198 67 2 1 1 -7 -1 -16z"/>
<path d="M3957 7326 c-68 -28 -107 -53 -107 -67 0 -17 61 -168 71 -174 5 -3
42 10 82 29 41 19 86 38 101 42 31 7 32 11 5 49 -11 17 -33 56 -50 88 -16 31
-33 57 -37 57 -4 0 -33 -11 -65 -24z"/>
<path d="M6179 7288 c-17 -35 -40 -76 -51 -91 -11 -16 -19 -30 -17 -31 2 -2
51 -23 108 -46 84 -34 105 -40 112 -29 18 29 51 125 53 154 1 27 -5 33 -59 61
-33 17 -72 34 -87 38 -26 6 -30 2 -59 -56z"/>
<path d="M6490 7124 c-7 -22 -23 -59 -37 -83 l-24 -45 48 -40 c49 -40 232
-227 233 -236 0 -9 -213 -226 -248 -252 l-33 -24 31 -67 c16 -37 30 -73 30
-82 0 -8 3 -15 8 -15 4 0 106 99 227 220 l220 220 -221 221 -222 222 -12 -39z"/>
<path d="M3520 6935 l-214 -214 214 -218 c118 -120 218 -219 223 -221 4 -2 7
2 7 9 0 7 14 44 32 82 l32 69 -45 36 c-43 36 -231 227 -237 241 -2 7 190 198
246 244 l33 27 -32 80 c-18 44 -35 80 -39 80 -3 0 -102 -97 -220 -215z"/>
<path d="M4206 7054 c-80 -18 -174 -58 -243 -105 -51 -35 -243 -217 -243 -230
0 -15 104 -120 177 -179 151 -122 275 -165 458 -158 99 4 117 8 178 37 71 34
68 31 194 200 85 113 82 102 37 157 -22 27 -55 72 -74 99 -72 110 -137 155
-259 181 -82 17 -136 17 -225 -2z m262 -190 c45 -22 162 -125 162 -143 0 -17
-111 -116 -155 -139 -134 -68 -341 -22 -495 111 l-32 27 24 20 c167 144 357
191 496 124z"/>
<path d="M4322 6765 c-18 -8 -42 -21 -54 -29 -21 -15 -20 -16 33 -41 73 -34
154 -34 227 0 60 28 60 38 -2 66 -50 23 -156 25 -204 4z"/>
<path d="M5815 7055 c-122 -26 -183 -69 -257 -178 -23 -34 -59 -83 -81 -110
-35 -42 -38 -49 -26 -66 8 -10 49 -65 92 -122 43 -57 94 -116 115 -132 55 -41
152 -68 252 -68 204 -1 373 81 550 267 l73 77 -84 82 c-151 145 -275 220 -414
250 -84 18 -140 18 -220 0z m166 -165 c71 -13 202 -77 262 -128 l47 -41 -57
-47 c-128 -104 -292 -147 -418 -110 -77 24 -171 97 -191 150 -7 19 74 102 138
140 41 24 100 42 149 45 9 1 41 -4 70 -9z"/>
<path d="M5750 6771 c-14 -4 -40 -16 -58 -25 -28 -14 -31 -20 -21 -32 40 -48
181 -59 274 -21 30 12 55 24 55 28 0 3 -21 16 -47 28 -51 25 -158 37 -203 22z"/>
<path d="M4897 6981 c-20 -14 -44 -36 -53 -49 -15 -21 -14 -26 11 -68 15 -25
41 -54 58 -64 36 -23 105 -35 137 -25 20 6 21 11 15 58 -9 69 -31 113 -69 141
-47 35 -58 36 -99 7z"/>
<path d="M5249 6976 c-44 -30 -64 -74 -64 -146 l0 -55 60 1 c70 1 100 17 140
74 34 48 29 76 -20 119 -43 37 -69 39 -116 7z"/>
<path d="M4957 6656 c-53 -14 -99 -53 -117 -97 -10 -24 -9 -32 10 -58 48 -69
91 -77 146 -29 45 39 64 82 64 142 0 37 -3 45 -22 50 -28 7 -22 8 -81 -8z"/>
<path d="M5180 6615 c0 -66 30 -124 81 -157 38 -25 44 -26 69 -13 29 15 80 70
80 86 0 23 -32 70 -65 95 -27 20 -50 28 -100 32 l-65 5 0 -48z"/>
<path d="M4685 6399 c-75 -76 -159 -114 -295 -131 -101 -12 -127 -24 -169 -77
-71 -90 -111 -230 -111 -392 l0 -89 83 0 c195 1 392 78 449 176 10 18 25 73
33 123 22 134 47 192 115 265 l59 62 -59 52 c-32 29 -60 52 -62 52 -2 0 -22
-18 -43 -41z m-125 -284 c0 -84 -38 -139 -125 -183 -31 -15 -134 -42 -162 -42
-20 0 52 178 89 218 33 36 96 62 151 62 l47 0 0 -55z"/>
<path d="M5457 6387 l-58 -52 47 -45 c73 -72 103 -143 125 -295 12 -92 26
-122 70 -159 88 -74 213 -114 383 -123 l119 -6 -7 109 c-11 182 -50 304 -122
383 -49 55 -55 57 -154 71 -165 21 -263 64 -311 135 -13 19 -26 35 -29 35 -3
0 -31 -24 -63 -53z m371 -253 c54 -20 95 -75 122 -162 24 -79 25 -82 2 -82
-41 0 -173 40 -202 61 -43 32 -70 94 -70 161 l0 55 53 -8 c28 -5 71 -16 95
-25z"/>
<path d="M5005 6319 c-135 -109 -179 -156 -200 -217 -24 -71 -30 -194 -12
-277 35 -162 88 -253 237 -408 l95 -100 83 89 c195 209 282 420 252 610 -20
128 -64 195 -179 273 -31 21 -78 57 -106 80 -27 22 -52 41 -55 40 -3 -1 -54
-41 -115 -90z m173 -129 c91 -71 138 -207 112 -321 -18 -81 -73 -188 -124
-244 l-46 -50 -35 39 c-123 137 -165 329 -103 463 21 45 118 153 138 153 4 0
31 -18 58 -40z"/>
<path d="M5113 6178 c-48 -59 -59 -183 -23 -265 12 -29 26 -53 29 -53 14 0 52
94 58 140 6 49 -15 140 -40 173 -11 15 -15 16 -24 5z"/>
<path d="M3910 6342 c-11 -25 -60 -161 -60 -169 0 -12 149 -83 176 -83 2 0 12
21 23 46 11 25 34 65 51 90 16 25 30 47 30 48 0 2 -26 14 -57 26 -32 13 -79
34 -104 46 l-46 23 -13 -27z"/>
<path d="M6304 6360 c-6 -6 -50 -26 -100 -46 -49 -20 -90 -38 -92 -39 -2 -2
11 -25 30 -52 18 -26 42 -67 52 -91 10 -23 24 -42 30 -42 6 0 45 17 86 38 87
43 88 47 45 158 -32 80 -37 88 -51 74z"/>
<path d="M3820 5725 l0 -305 311 0 c171 0 309 4 307 8 -1 5 -19 43 -38 85
l-35 77 -194 0 -194 0 4 187 4 186 -51 17 c-27 10 -64 25 -82 34 l-32 17 0
-306z"/>
<path d="M6338 5996 l-78 -31 0 -187 0 -188 -188 0 -189 0 -39 -80 c-22 -44
-38 -83 -35 -85 2 -3 141 -5 308 -5 l303 0 0 305 c0 168 -1 304 -2 304 -2 -1
-38 -16 -80 -33z"/>
<path d="M4635 5704 c-27 -19 -69 -42 -93 -51 -49 -19 -49 -19 4 -131 33 -68
37 -72 62 -66 26 6 163 61 170 68 2 2 -10 30 -26 62 -16 33 -35 77 -42 99 -7
22 -15 43 -19 47 -3 3 -28 -9 -56 -28z"/>
<path d="M5516 5640 c-21 -49 -42 -92 -47 -96 -20 -12 -6 -22 69 -51 125 -50
116 -50 149 4 67 111 68 135 11 158 -24 9 -64 30 -89 46 -25 16 -48 29 -51 29
-3 0 -22 -40 -42 -90z"/>
<path d="M4846 5412 c-3 -5 -37 -22 -76 -38 -38 -16 -70 -31 -70 -34 0 -3 95
-102 210 -220 l209 -215 215 215 c119 118 216 217 216 221 0 3 -26 16 -57 28
-32 13 -68 29 -79 37 -20 12 -27 7 -97 -74 -42 -48 -102 -113 -135 -145 l-59
-58 -128 138 c-71 76 -132 142 -136 146 -3 5 -9 4 -13 -1z"/>
<path d="M3411 3969 c-5 -13 -32 -85 -61 -159 -28 -74 -67 -175 -85 -225 -18
-49 -44 -120 -58 -157 l-26 -68 246 0 c192 0 244 3 240 13 -13 29 -143 363
-188 482 -27 71 -52 131 -54 133 -2 3 -9 -6 -14 -19z"/>
<path d="M6390 3830 l0 -333 98 6 c144 9 223 36 287 101 68 68 90 129 90 251
0 80 -3 97 -30 150 -33 66 -90 116 -153 136 -20 6 -94 13 -164 16 l-128 5 0
-332z"/>
<path d="M7854 3677 l-119 -312 239 -3 c131 -1 240 -1 242 1 1 1 -24 70 -57
152 -33 83 -87 222 -120 310 -34 88 -62 161 -63 162 -1 2 -56 -138 -122 -310z"/>
<path d="M3200 2194 l0 -67 47 6 c112 12 110 127 -2 127 l-45 0 0 -66z"/>
<path d="M4166 2182 c-32 -100 -34 -92 23 -92 28 0 51 3 51 7 0 14 -45 143
-50 143 -3 0 -13 -26 -24 -58z"/>
<path d="M4530 2195 l0 -65 39 0 c50 0 91 31 91 69 0 40 -28 61 -83 61 l-47 0
0 -65z"/>
<path d="M4972 2175 c-12 -35 -22 -69 -22 -74 0 -6 21 -11 50 -11 28 0 50 4
50 9 0 12 -41 124 -49 133 -4 4 -16 -22 -29 -57z"/>
<path d="M5340 2210 l0 -50 43 0 c30 0 49 6 60 18 38 42 9 82 -59 82 l-44 0 0
-50z"/>
<path d="M5340 2062 l0 -58 53 4 c80 6 111 48 67 92 -15 15 -33 20 -70 20
l-50 0 0 -58z"/>
</g>
</svg>
