<?xml version="1.0" encoding="UTF-8"?>
<svg id="Capa_1" xmlns="http://www.w3.org/2000/svg" version="1.1" viewBox="0 0 595.3 841.9">
  <!-- Generator: Adobe Illustrator 29.3.1, SVG Export Plug-In . SVG Version: 2.1.0 Build 151)  -->
  <defs>
    <style>
      .st0 {
        fill: #010101;
      }
    </style>
  </defs>
  <path class="st0" d="M297.6,573.8c-24.8,0-48.9-4.9-71.6-14.5-21.9-9.3-41.6-22.5-58.4-39.4-16.9-16.9-30.1-36.5-39.4-58.4-9.6-22.7-14.5-46.7-14.5-71.6s4.9-48.9,14.5-71.6c9.3-21.9,22.5-41.6,39.4-58.4,16.9-16.9,36.5-30.1,58.4-39.4,22.7-9.6,46.7-14.5,71.6-14.5s48.9,4.9,71.6,14.5c21.9,9.3,41.6,22.5,58.4,39.4,16.9,16.9,30.1,36.5,39.4,58.4,9.6,22.7,14.5,46.7,14.5,71.6s-4.9,48.9-14.5,71.6c-9.3,21.9-22.5,41.6-39.4,58.4-16.9,16.9-36.5,30.1-58.4,39.4-22.7,9.6-46.7,14.5-71.6,14.5ZM297.6,224.8c-22.3,0-43.9,4.4-64.3,13-19.7,8.3-37.3,20.2-52.5,35.4-15.2,15.2-27.1,32.8-35.4,52.5-8.6,20.3-13,42-13,64.3s4.4,43.9,13,64.3c8.3,19.7,20.2,37.3,35.4,52.5,15.2,15.2,32.8,27.1,52.5,35.4,20.3,8.6,42,13,64.3,13s43.9-4.4,64.3-13c19.7-8.3,37.3-20.2,52.5-35.4,15.2-15.2,27.1-32.8,35.4-52.5,8.6-20.3,13-42,13-64.3s-4.4-43.9-13-64.3c-8.3-19.7-20.2-37.3-35.4-52.5-15.2-15.2-32.8-27.1-52.5-35.4-20.3-8.6-42-13-64.3-13Z"/>
  <path class="st0" d="M378.9,423.4c-.9,0-1.8-.1-2.7-.4l-81.3-24.1c-3.2-.9-5.6-3.5-6.4-6.7l-29.2-116.3c-1.3-5,1.8-10.1,6.8-11.4,5-1.3,10.1,1.8,11.4,6.8l27.9,111.1,76.2,22.6c5,1.5,7.8,6.7,6.3,11.6-1.2,4.1-4.9,6.7-9,6.7Z"/>
  <path class="st0" d="M297.6,271.1c-3.9,0-7-3.1-7-7v-14.7c0-3.9,3.1-7,7-7s7,3.1,7,7v14.7c0,3.9-3.1,7-7,7Z"/>
  <path class="st0" d="M171.8,397h-14.7c-3.9,0-7-3.1-7-7s3.1-7,7-7h14.7c3.9,0,7,3.1,7,7s-3.1,7-7,7Z"/>
  <path class="st0" d="M207.9,304.4c-1.1,0-2.1-.4-3-1.2l-9.1-9.1c-1.6-1.6-1.6-4.3,0-5.9,1.6-1.6,4.3-1.6,5.9,0l9.1,9.1c1.6,1.6,1.6,4.3,0,5.9-.8.8-1.9,1.2-3,1.2Z"/>
  <path class="st0" d="M297.6,537.6c-3.9,0-7-3.1-7-7v-14.7c0-3.9,3.1-7,7-7s7,3.1,7,7v14.7c0,3.9-3.1,7-7,7Z"/>
  <path class="st0" d="M198.9,492.9c-1.1,0-2.1-.4-3-1.2-1.6-1.6-1.6-4.3,0-5.9l9.1-9.1c1.6-1.6,4.3-1.6,5.9,0,1.6,1.6,1.6,4.3,0,5.9l-9.1,9.1c-.8.8-1.9,1.2-3,1.2Z"/>
  <path class="st0" d="M438.2,397h-14.7c-3.9,0-7-3.1-7-7s3.1-7,7-7h14.7c3.9,0,7,3.1,7,7s-3.1,7-7,7Z"/>
  <path class="st0" d="M396.4,492.9c-1.1,0-2.1-.4-3-1.2l-9.1-9.1c-1.6-1.6-1.6-4.3,0-5.9,1.6-1.6,4.3-1.6,5.9,0l9.1,9.1c1.6,1.6,1.6,4.3,0,5.9-.8.8-1.9,1.2-3,1.2Z"/>
  <path class="st0" d="M387.3,304.4c-1.1,0-2.1-.4-3-1.2-1.6-1.6-1.6-4.3,0-5.9l9.1-9.1c1.6-1.6,4.3-1.6,5.9,0,1.6,1.6,1.6,4.3,0,5.9l-9.1,9.1c-.8.8-1.9,1.2-3,1.2Z"/>
</svg>