<?xml version="1.0" encoding="UTF-8"?>
<svg id="Capa_1" xmlns="http://www.w3.org/2000/svg" version="1.1" viewBox="0 0 595.3 841.9">
  <!-- Generator: Adobe Illustrator 29.3.1, SVG Export Plug-In . SVG Version: 2.1.0 Build 151)  -->
  <defs>
    <style>
      .st0 {
        fill: #010101;
      }
    </style>
  </defs>
  <path class="st0" d="M395.8,459c-11.2-1.4-22-3.9-32.4-7.5-10.4-3.6-22,1-26.9,10.9l-10.2,20.7c-39.4-19.5-71.5-51.6-91-91l20.7-10.2c9.9-4.9,14.6-16.4,10.9-26.9-3.6-10.3-6.1-21.2-7.5-32.4-1.3-10.9-10.7-19.2-21.7-19.2h-25.6c-26.2,0-46,24-40.8,49.6,19.8,97.4,96.5,174.2,193.9,193.9,25.7,5.2,49.6-14.6,49.6-40.8v-25.6c0-11-8.2-20.3-19.2-21.7Z"/>
  <path class="st0" d="M487.6,230.9c-50.6-50.6-118-78.5-189.6-78.5s-139,27.9-189.6,78.5c-50.6,50.6-78.5,118-78.5,189.6s27.9,139,78.5,189.6c50.6,50.6,118,78.5,189.6,78.5s139-27.9,189.6-78.5c50.6-50.6,78.5-118,78.5-189.6s-27.9-139-78.5-189.6ZM298,654.5c-129,0-234-105-234-234s105-234,234-234,234,105,234,234-105,234-234,234Z"/>
</svg>