<?xml version="1.0" encoding="UTF-8"?>
<svg id="Capa_1" xmlns="http://www.w3.org/2000/svg" version="1.1" viewBox="0 0 595.3 841.9">
  <!-- Generator: Adobe Illustrator 29.3.1, SVG Export Plug-In . SVG Version: 2.1.0 Build 151)  -->
  <defs>
    <style>
      .st0 {
        fill: #fff;
      }

      .st1 {
        fill: #010101;
      }
    </style>
  </defs>
  <path class="st1" d="M298,697.9c-74.1,0-143.8-28.9-196.1-81.2-52.4-52.4-81.2-122.1-81.2-196.1s28.9-143.8,81.2-196.1c52.4-52.4,122.1-81.2,196.1-81.2s143.8,28.9,196.1,81.2c52.4,52.4,81.2,122.1,81.2,196.1s-28.9,143.8-81.2,196.1c-52.4,52.4-122.1,81.2-196.1,81.2ZM298,161.9c-69.1,0-134,26.9-182.8,75.7s-75.7,113.8-75.7,182.8,26.9,134,75.7,182.8c48.8,48.8,113.8,75.7,182.8,75.7s134-26.9,182.8-75.7c48.8-48.8,75.7-113.8,75.7-182.8s-26.9-134-75.7-182.8c-48.8-48.8-113.8-75.7-182.8-75.7Z"/>
  <g>
    <path class="st1" d="M404.9,464.8l-94.7,122.8c-6.2,8-18.3,8-24.5,0l-94.7-122.8c-41.4-53.8-36.5-129.9,11.5-177.9,26.4-26.4,60.9-39.5,95.5-39.5s69.1,13.2,95.5,39.5h0c48,48,52.9,124.2,11.5,177.9Z"/>
    <circle class="st0" cx="298" cy="382.4" r="73.6"/>
  </g>
</svg>